<?xml version="1.0" standalone="no"?>
<!DOCTYPE svg PUBLIC "-//W3C//DTD SVG 20010904//EN"
 "http://www.w3.org/TR/2001/REC-SVG-20010904/DTD/svg10.dtd">
<svg version="1.0" xmlns="http://www.w3.org/2000/svg"
 width="304.000000pt" height="227.000000pt" viewBox="0 0 304.000000 227.000000"
 preserveAspectRatio="xMidYMid meet">
<metadata>
Created by potrace 1.16, written by Peter Selinger 2001-2019
</metadata>
<g transform="translate(0.000000,227.000000) scale(0.100000,-0.100000)"
fill="#000000" stroke="none">
<path d="M758 2263 c419 -2 1105 -2 1525 0 419 1 76 2 -763 2 -839 0 -1182 -1
-762 -2z"/>
<path d="M1467 1604 c-4 -4 -7 -18 -7 -32 0 -14 -8 -30 -17 -37 -15 -11 -15
-17 -6 -36 7 -13 14 -37 15 -54 3 -26 8 -30 36 -33 29 -3 33 0 38 27 5 21 12
31 25 31 11 0 19 -2 19 -5 0 -22 -68 -174 -99 -222 -82 -127 -157 -144 -244
-55 -37 38 -127 186 -127 209 0 7 11 13 24 13 19 0 26 -7 31 -30 8 -37 13 -40
49 -33 26 5 28 8 22 41 -3 20 -1 41 4 47 7 8 2 20 -14 38 -14 15 -27 36 -31
47 -7 22 -9 23 -43 14 -21 -6 -23 -11 -17 -45 5 -29 3 -39 -7 -39 -7 -1 -33
-5 -56 -9 -43 -9 -44 -8 -58 25 -14 34 -35 42 -63 25 -10 -7 -11 -16 -4 -37 7
-20 7 -34 -1 -46 -9 -14 -7 -21 10 -33 12 -8 24 -27 27 -43 5 -25 9 -28 36
-24 29 4 31 7 29 45 -2 22 2 42 8 44 11 4 45 -87 168 -437 l44 -125 121 -3
c66 -1 121 -1 121 1 0 15 111 611 115 617 13 22 34 -3 32 -38 -2 -36 -1 -37
36 -40 36 -3 37 -3 37 32 0 25 4 36 15 36 17 0 21 35 5 45 -5 3 -10 21 -10 39
0 26 -5 35 -22 40 -40 10 -46 7 -52 -30 -6 -27 -11 -34 -24 -30 -9 3 -34 8
-54 12 -36 6 -38 8 -38 45 0 24 -5 39 -12 39 -7 0 -22 3 -33 6 -11 3 -24 2
-28 -2z"/>
<path d="M1300 1342 c-30 -10 -50 -36 -50 -65 0 -58 64 -126 104 -111 23 9 34
54 24 99 -13 57 -45 88 -78 77z"/>
<path d="M1449 663 c-13 -16 -17 -22 -9 -15 25 22 27 13 7 -50 -10 -35 -21
-69 -23 -76 -3 -9 -12 -11 -26 -6 -33 10 -34 11 -9 54 29 51 22 51 -14 0 -21
-31 -34 -40 -56 -40 -15 0 -31 -4 -34 -10 -3 -5 3 -10 14 -10 27 0 26 -12 -5
-65 -14 -25 -24 -55 -22 -67 2 -18 12 -5 42 54 36 73 40 77 65 72 39 -10 41
-12 34 -44 -9 -49 3 -80 34 -80 25 0 26 1 8 14 -15 11 -17 22 -12 72 5 49 31
152 54 210 9 24 -22 15 -48 -13z"/>
<path d="M2249 663 c-14 -16 -29 -35 -35 -43 -5 -9 3 -2 18 15 33 36 34 32 7
-56 -19 -63 -23 -69 -43 -63 -31 10 -32 12 -12 47 l17 32 -29 -32 c-18 -22
-38 -33 -55 -33 -14 0 -29 -4 -32 -10 -3 -5 3 -10 14 -10 27 0 26 -10 -5 -70
-14 -27 -24 -57 -22 -67 3 -12 15 3 37 47 44 87 47 89 79 81 24 -7 26 -12 24
-44 -5 -51 6 -77 30 -77 17 0 18 2 8 15 -21 25 2 165 47 281 9 24 -22 15 -48
-13z"/>
</g>
</svg>
